<svg width="19" height="19" viewBox="0 0 19 19" fill="none" xmlns="http://www.w3.org/2000/svg">
<path d="M18.0758 15.5713L3.46978 0.866208C2.98493 0.378073 2.19706 0.378073 1.77282 0.866208C1.28797 1.35434 1.28797 2.14757 1.77282 2.57469L16.3789 17.2798C16.6213 17.5238 16.9243 17.6459 17.2274 17.6459C17.5304 17.6459 17.8334 17.5238 18.0758 17.2798C18.5607 16.7916 18.5607 16.0594 18.0758 15.5713Z" fill="#416581"/>
<path d="M3.53033 17.2798L18.1364 2.57469C18.6212 2.08656 18.6212 1.29333 18.1364 0.866208C17.6515 0.378073 16.8637 0.378073 16.4394 0.866208L1.83335 15.5713C1.59092 15.8153 1.46973 16.1204 1.46973 16.4255C1.46973 16.7306 1.59092 17.0357 1.83335 17.2798C2.25759 17.7679 3.04548 17.7679 3.53033 17.2798Z" fill="#416581"/>
</svg>